<svg width="35" height="35" viewBox="0 0 35 35" fill="none" xmlns="http://www.w3.org/2000/svg">
<path d="M19.7782 22.5722C17.4722 21.6534 15.3901 20.2592 13.6704 18.4824C12.7393 17.4022 11.9543 16.2067 11.335 14.926L10.5267 13.1478C10.4756 12.8578 10.4981 12.5597 10.5922 12.2804C10.6863 12.001 10.8489 11.7492 11.0656 11.5475C11.3791 11.1068 11.8163 10.7667 12.3231 10.5695C12.4936 10.4942 12.6851 10.4796 12.8652 10.5282C13.0453 10.5768 13.2029 10.6856 13.3111 10.8362L14.8381 12.97C14.982 13.1972 15.0342 13.4698 14.9843 13.7334C14.9344 13.997 14.7859 14.2324 14.5686 14.3925L14.2093 14.6593L13.9399 14.926C13.8979 15.0245 13.8762 15.1303 13.8762 15.2372C13.8762 15.3441 13.8979 15.4499 13.9399 15.5484C14.191 16.3353 14.6096 17.0599 15.1674 17.6733C15.7251 18.2868 16.4092 18.7749 17.1734 19.1047C17.4372 19.2847 17.7514 19.378 18.0716 19.3715C18.5207 19.2825 18.7004 18.7491 19.0597 18.3935C19.2291 18.2706 19.4335 18.2044 19.6435 18.2044C19.8535 18.2044 20.058 18.2706 20.2273 18.3935L21.3052 19.1047L22.3831 19.9049C22.4662 19.9511 22.5392 20.0131 22.5978 20.0875C22.6565 20.1619 22.6996 20.247 22.7247 20.3381C22.7498 20.4291 22.7563 20.5241 22.7439 20.6177C22.7315 20.7112 22.7005 20.8014 22.6525 20.8829C22.3491 21.5994 21.8114 22.1943 21.1256 22.5722L20.4968 22.75L19.7782 22.5722Z" fill="white"/>
<path d="M24.0288 16.625H23.9345C23.6518 16.625 23.5575 16.3627 23.5575 16.1005V15.3136C23.5332 14.6706 23.3725 14.0383 23.0846 13.4529C22.7966 12.8675 22.3871 12.3405 21.8794 11.9021C21.3717 11.4636 20.7759 11.1223 20.1259 10.8976C19.4759 10.673 18.7845 10.5694 18.0913 10.5927H17.2431C16.9604 10.6802 16.6777 10.5053 16.6777 10.3305C16.6415 10.2738 16.6232 10.2088 16.6251 10.1429C16.627 10.0771 16.6489 10.013 16.6883 9.95822C16.7277 9.9034 16.783 9.86002 16.8478 9.83308C16.9126 9.80613 16.9843 9.79672 17.0546 9.80593L17.9971 9.63108C18.8218 9.59594 19.6458 9.71344 20.421 9.97672C21.1962 10.24 21.9072 10.6438 22.5125 11.1646C23.1178 11.6854 23.6052 12.3127 23.9464 13.01C24.2877 13.7074 24.4759 14.4607 24.5 15.2262V16.1005C24.4058 16.4502 24.2173 16.625 24.0288 16.625Z" fill="white"/>
<path d="M22.3125 16.6213H22.225C22.1597 16.6313 22.0931 16.621 22.033 16.5917C21.9728 16.5623 21.9215 16.515 21.8849 16.4552C21.8483 16.3955 21.828 16.3257 21.8262 16.2538C21.8245 16.182 21.8414 16.1112 21.875 16.0494C21.8296 15.0296 21.4196 14.0697 20.7328 13.375C20.046 12.6803 19.1369 12.3059 18.2 12.332H18.025C17.7625 12.4274 17.5875 12.2367 17.5 11.9508C17.5132 11.8323 17.5517 11.7188 17.6125 11.6194C17.6733 11.5201 17.7546 11.4377 17.85 11.3789H18.1125C18.6986 11.3534 19.2836 11.454 19.834 11.6749C20.3844 11.8959 20.8895 12.2329 21.3202 12.6667C21.7509 13.1005 22.0989 13.6226 22.3442 14.203C22.5896 14.7834 22.7275 15.4108 22.75 16.0494V16.3353C22.7002 16.4144 22.6354 16.4809 22.5599 16.5303C22.4844 16.5796 22.4 16.6107 22.3125 16.6213Z" fill="white"/>
<path d="M20.5 15.7499C20.383 15.7518 20.2689 15.721 20.1776 15.6628C20.0862 15.6047 20.0234 15.5229 20 15.4317C19.9522 15.0302 19.7233 14.656 19.3557 14.3782C18.9881 14.1004 18.5066 13.9378 18 13.9204C17.8674 13.9204 17.7402 13.8785 17.6464 13.8039C17.5527 13.7294 17.5 13.6282 17.5 13.5227C17.5 13.3636 17.7 13.2045 18 13.125C18.7489 13.1577 19.4596 13.3987 20.0079 13.8057C20.5562 14.2128 20.9074 14.7602 21 15.3522C21 15.4577 20.9473 15.5588 20.8536 15.6334C20.7598 15.708 20.6326 15.7499 20.5 15.7499Z" fill="white"/>
<path d="M21.558 3.5H13.442C10.8052 3.5 8.27645 4.51061 6.41195 6.30952C4.54746 8.10842 3.5 10.5483 3.5 13.0923V18.4757C3.49931 20.4893 4.15543 22.4521 5.37538 24.0859C6.59532 25.7197 8.31723 26.9417 10.2971 27.5786V30.3193C10.2958 30.5584 10.3702 30.7922 10.5103 30.9894C10.6504 31.1866 10.8495 31.3379 11.0811 31.423C11.3127 31.5082 11.5657 31.5231 11.8063 31.4658C12.0469 31.4084 12.2636 31.2817 12.4275 31.1023L15.471 28.068H21.558C24.1948 28.068 26.7236 27.0574 28.588 25.2585C30.4525 23.4596 31.5 21.0198 31.5 18.4757V13.0923C31.5 10.5483 30.4525 8.10842 28.588 6.30952C26.7236 4.51061 24.1948 3.5 21.558 3.5ZM29.0652 18.1821C29.0653 19.1673 28.8626 20.1427 28.4688 21.0516C28.075 21.9606 27.498 22.785 26.7712 23.4771C26.0445 24.1692 25.1825 24.7151 24.2353 25.0831C23.2882 25.4511 22.2746 25.634 21.2536 25.621H16.587C16.5601 25.621 16.5342 25.6313 16.5152 25.6497C16.4962 25.668 16.4855 25.6929 16.4855 25.7189L15.0652 27.0892L14.2536 27.9701H14.0507L11.8188 30.2214C11.7766 30.2581 11.7245 30.2827 11.6685 30.2924C11.6125 30.302 11.5548 30.2963 11.502 30.2759C11.4492 30.2555 11.4034 30.2213 11.3697 30.177C11.3361 30.1328 11.3159 30.0804 11.3116 30.0256V25.1316C9.62295 24.6272 8.18117 23.5492 7.25362 22.0973C7.19063 22.0517 7.13949 21.9926 7.10428 21.9247C7.06906 21.8567 7.05073 21.7818 7.05073 21.7058L6.84783 21.4121C6.31665 20.3775 6.03897 19.2389 6.03623 18.0842V13.3859C6.0527 12.2329 6.32967 11.0972 6.84783 10.058C6.94698 9.84113 7.08427 9.64244 7.25362 9.47071C7.9245 8.38905 8.87633 7.49504 10.015 6.87705C11.1538 6.25905 12.4399 5.93848 13.7464 5.94701H21.2536C22.2746 5.93405 23.2882 6.11689 24.2353 6.48493C25.1825 6.85296 26.0445 7.39885 26.7712 8.09091C27.498 8.78298 28.075 9.60742 28.4688 10.5164C28.8626 11.4254 29.0653 12.4008 29.0652 13.3859V18.1821Z" fill="white"/>
</svg>
