<svg width="30" height="30" viewBox="0 0 30 30" fill="none" xmlns="http://www.w3.org/2000/svg">
<path d="M16.9528 19.3476C14.9761 18.56 13.1915 17.365 11.7175 15.842C10.9194 14.9162 10.2465 13.8915 9.71575 12.7937L9.02284 11.2696C8.97909 11.0209 8.99839 10.7654 9.07902 10.526C9.15964 10.2866 9.29907 10.0707 9.48478 9.89782C9.75353 9.52008 10.1283 9.22863 10.5626 9.05953C10.7088 8.99499 10.8729 8.98249 11.0273 9.02417C11.1817 9.06584 11.3167 9.15912 11.4095 9.28816L12.7183 11.1171C12.8417 11.3119 12.8865 11.5455 12.8437 11.7715C12.8009 11.9975 12.6737 12.1992 12.4874 12.3365L12.1794 12.5651L11.9484 12.7937C11.9125 12.8781 11.8939 12.9688 11.8939 13.0604C11.8939 13.1521 11.9125 13.2428 11.9484 13.3272C12.1638 14.0017 12.5225 14.6228 13.0006 15.1486C13.4787 15.6744 14.065 16.0927 14.7201 16.3755C14.9461 16.5297 15.2155 16.6097 15.49 16.6041C15.8749 16.5279 16.0289 16.0707 16.3369 15.7658C16.482 15.6606 16.6573 15.6038 16.8373 15.6038C17.0173 15.6038 17.1925 15.6606 17.3377 15.7658L18.2616 16.3755L19.1855 17.0614C19.2567 17.1009 19.3193 17.1541 19.3696 17.2179C19.4198 17.2816 19.4568 17.3546 19.4783 17.4326C19.4998 17.5106 19.5054 17.5921 19.4948 17.6723C19.4842 17.7525 19.4575 17.8297 19.4164 17.8996C19.1564 18.5138 18.6955 19.0237 18.1076 19.3476L17.5687 19.5L16.9528 19.3476Z" fill="#111B1E"/>
<path d="M20.5961 14.25H20.5153C20.273 14.25 20.1922 14.0252 20.1922 13.8004V13.126C20.1713 12.5748 20.0336 12.0328 19.7868 11.5311C19.54 11.0293 19.1889 10.5776 18.7538 10.2018C18.3186 9.82597 17.8079 9.53341 17.2508 9.34084C16.6936 9.14826 16.101 9.05946 15.5069 9.07949H14.7798C14.5375 9.15443 14.2951 9.00456 14.2951 8.85469C14.2641 8.80611 14.2485 8.75038 14.2501 8.69393C14.2517 8.63748 14.2705 8.5826 14.3043 8.53561C14.338 8.48863 14.3854 8.45144 14.441 8.42835C14.4965 8.40526 14.558 8.39719 14.6183 8.40508L15.4261 8.25521C16.133 8.22509 16.8392 8.3258 17.5037 8.55148C18.1682 8.77715 18.7776 9.12327 19.2964 9.56965C19.8152 10.016 20.233 10.5538 20.5255 11.1515C20.818 11.7492 20.9793 12.3949 21 13.051V13.8004C20.9192 14.1001 20.7577 14.25 20.5961 14.25Z" fill="#111B1E"/>
<path d="M19.125 14.2468H19.05C18.994 14.2554 18.937 14.2466 18.8854 14.2214C18.8338 14.1962 18.7898 14.1557 18.7585 14.1045C18.7271 14.0532 18.7097 13.9934 18.7082 13.9319C18.7067 13.8703 18.7212 13.8096 18.75 13.7566C18.7111 12.8825 18.3597 12.0597 17.771 11.4643C17.1823 10.8688 16.4031 10.5479 15.6 10.5703H15.45C15.225 10.652 15.075 10.4886 15 10.2435C15.0113 10.1419 15.0443 10.0447 15.0964 9.95952C15.1485 9.87438 15.2183 9.80375 15.3 9.75333H15.525C16.0274 9.73144 16.5288 9.81768 17.0006 10.0071C17.4724 10.1965 17.9053 10.4854 18.2744 10.8572C18.6436 11.229 18.9419 11.6765 19.1522 12.174C19.3625 12.6715 19.4807 13.2093 19.5 13.7566V14.0017C19.4573 14.0695 19.4018 14.1265 19.337 14.1688C19.2723 14.2111 19.2 14.2377 19.125 14.2468Z" fill="#111B1E"/>
<path d="M17.5714 13.4999C17.4712 13.5015 17.3734 13.4751 17.2951 13.4253C17.2168 13.3755 17.1629 13.3054 17.1429 13.2272C17.1019 12.883 16.9057 12.5623 16.5906 12.3242C16.2755 12.0861 15.8628 11.9467 15.4286 11.9318C15.3149 11.9318 15.2059 11.8959 15.1255 11.832C15.0452 11.768 15 11.6813 15 11.5909C15 11.4545 15.1714 11.3182 15.4286 11.25C16.0705 11.278 16.6796 11.4846 17.1496 11.8335C17.6196 12.1824 17.9206 12.6516 18 13.159C18 13.2494 17.9548 13.3362 17.8745 13.4001C17.7941 13.464 17.6851 13.4999 17.5714 13.4999Z" fill="#111B1E"/>
<path d="M18.4783 3H11.5217C9.26163 3 7.0941 3.86624 5.49596 5.40816C3.89782 6.95008 3 9.04137 3 11.222V15.8363C2.99941 17.5623 3.5618 19.2447 4.60747 20.6451C5.65313 22.0455 7.12905 23.0928 8.82609 23.6388V25.9879C8.82497 26.1929 8.88871 26.3933 9.00879 26.5623C9.12887 26.7314 9.29957 26.8611 9.49808 26.934C9.69658 27.007 9.91344 27.0198 10.1197 26.9707C10.3259 26.9215 10.5117 26.8128 10.6522 26.6591L13.2609 24.0583H18.4783C20.7384 24.0583 22.9059 23.1921 24.504 21.6501C26.1022 20.1082 27 18.0169 27 15.8363V11.222C27 9.04137 26.1022 6.95008 24.504 5.40816C22.9059 3.86624 20.7384 3 18.4783 3ZM24.913 15.5846C24.9131 16.4291 24.7393 17.2651 24.4018 18.0443C24.0643 18.8234 23.5697 19.53 22.9468 20.1232C22.3238 20.7164 21.585 21.1843 20.7731 21.4998C19.9613 21.8153 19.0925 21.972 18.2174 21.9609H14.2174C14.1943 21.9609 14.1722 21.9697 14.1559 21.9854C14.1396 22.0012 14.1304 22.0225 14.1304 22.0448L12.913 23.2193L12.2174 23.9744H12.0435L10.1304 25.904C10.0942 25.9355 10.0496 25.9566 10.0016 25.9649C9.95359 25.9731 9.90415 25.9683 9.85888 25.9508C9.81361 25.9333 9.77432 25.904 9.74547 25.866C9.71662 25.8281 9.69936 25.7832 9.69565 25.7363V21.5414C8.24824 21.1091 7.01243 20.185 6.21739 18.9405C6.16339 18.9015 6.11957 18.8508 6.08938 18.7926C6.05919 18.7343 6.04348 18.6701 6.04348 18.605L5.86957 18.3533C5.41427 17.4664 5.17626 16.4904 5.17391 15.5007V11.4737C5.18803 10.4853 5.42543 9.51185 5.86957 8.62114C5.95456 8.43525 6.07223 8.26494 6.21739 8.11775C6.79243 7.19062 7.60829 6.42432 8.58432 5.89461C9.56036 5.3649 10.6628 5.09013 11.7826 5.09744H18.2174C19.0925 5.08633 19.9613 5.24305 20.7731 5.55851C21.585 5.87396 22.3238 6.34187 22.9468 6.93507C23.5697 7.52826 24.0643 8.23493 24.4018 9.01405C24.7393 9.79317 24.9131 10.6292 24.913 11.4737V15.5846Z" fill="#111B1E"/>
</svg>
