<svg width="120" height="120" viewBox="0 0 120 120" fill="none" xmlns="http://www.w3.org/2000/svg">
<path d="M52.1312 88.5246L115.082 9.83606L83.6066 120L52.1312 88.5246Z" fill="#EBB25B"/>
<path d="M36.3935 80.6557L4.91809 64.918L115.082 9.83606L36.3935 80.6557Z" fill="#EBB25B"/>
<path d="M4.1308 55.2787L114.295 0.196721H114.491L114.688 0C114.885 0 115.082 0 115.082 0C115.278 0 115.278 0 115.475 0C115.672 0 115.672 0 115.869 0.196721H116.065C116.065 0.196721 116.065 0.196721 116.262 0.196721L116.459 0.393443L116.655 0.590164V0.786885C116.655 0.983607 116.852 0.983607 116.852 1.18033C116.852 1.37705 116.852 1.37705 116.852 1.57377C117.049 1.77049 117.049 1.96721 117.049 1.96721C117.049 2.16393 117.049 2.16393 117.049 2.36066V2.55738L85.5734 112.721C85.3767 113.311 84.7865 113.902 84.1964 114.098C83.9996 114.098 83.8029 114.098 83.6062 114.098C83.016 114.098 82.6226 113.902 82.2292 113.508L60.3931 91.6721L46.0324 113.311C45.8357 113.508 45.8357 113.705 45.639 113.705C45.639 113.705 45.639 113.705 45.4423 113.705C45.2456 113.705 45.2456 113.902 45.0488 113.902H44.8521C44.6554 113.902 44.4587 113.902 44.2619 113.902C44.2619 113.902 44.2619 113.902 44.0652 113.902C43.8685 113.902 43.6718 113.902 43.6718 113.902C43.6718 113.902 43.4751 113.902 43.4751 113.705C43.4751 113.705 43.2783 113.705 43.2783 113.508C43.0816 113.311 43.0816 113.311 42.8849 113.115C42.8849 113.115 42.8849 112.918 42.6882 112.918C42.4915 112.721 42.4914 112.525 42.4914 112.328L34.8193 73.9672L4.1308 58.623C3.54063 58.2295 2.95047 57.6393 2.95047 56.8525C2.95047 56.0656 3.34391 55.6721 4.1308 55.2787ZM44.4587 103.082L50.1636 80.2623C50.1636 80.0656 50.3603 79.8689 50.3603 79.6721V79.4754L98.557 19.4754L38.557 73.3771L44.4587 103.082ZM82.6226 108.393L110.557 10.8197L54.8849 80.459L82.6226 108.393ZM53.1144 84.5902L48.7865 101.705L57.2456 88.918L53.1144 84.5902ZM35.9996 70.4262L102.885 10.2295L9.24555 57.0492L35.9996 70.4262Z" fill="black"/>
<path d="M113.114 48.7869C113.311 47.8033 114.491 47.0164 115.475 47.4098C116.458 47.6066 117.245 48.7869 116.852 49.7705L108.983 81.2459C108.983 82.0328 107.999 82.6229 107.212 82.6229C107.016 82.6229 106.819 82.6229 106.819 82.6229C105.835 82.4262 105.048 81.2459 105.442 80.2623L113.114 48.7869Z" fill="black"/>
<path d="M82.8186 0.196723C83.8022 -0.19672 84.9825 0.196723 85.3759 0.983608C85.7694 1.96721 85.3759 3.14754 84.589 3.54099L68.8513 11.4098C68.4579 11.8033 68.2612 11.8033 67.8677 11.8033C67.0809 11.8033 66.4907 11.4098 66.0973 10.623C65.7038 9.63935 66.0973 8.45902 66.8841 8.06557L82.8186 0.196723Z" fill="black"/>
<path d="M26.3447 94.2131C25.9512 94.6066 25.3611 94.8033 24.9676 94.8033C24.5742 94.8033 23.984 94.6066 23.5906 94.2131C22.8037 93.4262 22.8037 92.2459 23.5906 91.459L31.4594 83.5902C32.2463 82.8033 33.4267 82.8033 34.2135 83.5902C35.0004 84.3771 35.0004 85.5574 34.2135 86.3443L26.3447 94.2131Z" fill="black"/>
<path d="M34.2135 102.344L26.3447 110.213C25.9512 110.607 25.3611 110.803 24.9676 110.803C24.5742 110.803 23.984 110.607 23.5906 110.213C22.8037 109.426 22.8037 108.246 23.5906 107.459L31.4594 99.5902C32.2463 98.8033 33.4267 98.8033 34.2135 99.5902C35.0004 100.377 35.0004 101.557 34.2135 102.344Z" fill="black"/>
<path d="M19.2778 79.5902C20.0647 78.8033 21.245 78.8033 22.0319 79.5902C22.8188 80.3771 22.8188 81.5574 22.0319 82.3443L6.29417 98.082C5.90073 98.4754 5.31056 98.6721 4.91712 98.6721C4.52367 98.6721 3.93351 98.4754 3.54006 98.082C2.75318 97.2951 2.75318 96.1148 3.54006 95.3279L19.2778 79.5902Z" fill="black"/>
</svg>
