<svg id="Layer_1" data-name="Layer 1" xmlns="http://www.w3.org/2000/svg" viewBox="0 0 350 186"><defs><style>.cls-1{fill:#111b1e;}.cls-2{fill:#fbdb58;}.cls-3{fill:#fff;}</style></defs><title>logo mangal.if</title><path class="cls-1" d="M175,182.525a152.13171,152.13171,0,0,1-33.515-3.74465L23.04438,151.98047A25.71107,25.71107,0,0,1,2.90055,126.76965V59.2303A25.712,25.712,0,0,1,23.04438,34.019L141.485,7.21958a151.87168,151.87168,0,0,1,67.03,0L326.95562,34.019a25.712,25.712,0,0,1,20.14383,25.2113v67.53935a25.71107,25.71107,0,0,1-20.14383,25.21082L208.515,178.78037A152.13171,152.13171,0,0,1,175,182.525Z"/><path class="cls-2" d="M175,6.37606a148.961,148.961,0,0,1,32.87476,3.67283L326.31528,36.84816A22.948,22.948,0,0,1,344.1989,59.23037v67.53927a22.948,22.948,0,0,1-17.88362,22.38221L207.87476,175.95111a148.96409,148.96409,0,0,1-65.74952,0L23.68472,149.15185A22.948,22.948,0,0,1,5.8011,126.76964V59.23037A22.948,22.948,0,0,1,23.68472,36.84816L142.12524,10.04889A148.961,148.961,0,0,1,175,6.37606M175,.575a155.00733,155.00733,0,0,0-34.155,3.81587L22.40445,31.1901A28.59693,28.59693,0,0,0,0,59.23037v67.53927a28.597,28.597,0,0,0,22.40445,28.04027L140.845,181.60917a154.765,154.765,0,0,0,68.31,0l118.44053-26.79926A28.59694,28.59694,0,0,0,350,126.76964V59.23037A28.59692,28.59692,0,0,0,327.59555,31.1901L209.155,4.39083A155.00733,155.00733,0,0,0,175,.575Z"/><path class="cls-2" d="M48.25731,75.06425c2.8051-1.95473,4.84776-3.60994,7.09906-4.90154a12.03312,12.03312,0,0,1,16.187,3.27295c1.2558,1.68854,1.78231,1.02986,2.93228.1712,3.91846-2.92581,7.81105-5.87029,13.237-5.092,6.43018.92232,10.45751,4.6957,10.23321,11.15751-.344,9.91149-.16719,19.79447.33232,29.6807.10536,2.08514-.8013,2.30631-2.49676,2.26875-4.0542-.08975-8.11684-.15015-12.16591.01965-2.20282.09237-2.85776-.52144-2.72843-2.78062q.60316-10.5359.79081-21.09421c.07971-4.44938-1.9586-6.213-5.81837-5.53955-1.90576.33252-2.73194,1.18247-2.78124,3.315-.17939,7.75979.05367,15.50826.44688,23.24836.11071,2.17933-.25153,2.95859-2.58047,2.8549-4.16723-.18554-8.3517-.14662-12.52279-.01139-1.95546.0634-2.40795-.63131-2.31785-2.47185.34984-7.14712.59039-14.30009.80716-21.45284.06655-2.19574-.13852-4.41169-2.61906-5.36184-3.4136-1.30756-6.09582.55747-6.01781,4.24285.154,7.2727.31624,14.5477.67128,21.81219.11629,2.37926-.2943,3.41053-2.97654,3.25262-4.04218-.238-8.11057-.13376-12.164-.029-1.71608.04438-2.31215-.4802-2.16753-2.22371,1.02775-12.39017.6164-24.78982.06-37.18323-.08345-1.85874.518-2.56663,2.32987-2.65829,3.57207-.1807,7.1576-.34018,10.699-.80341,2.72739-.35675,4.05851.27155,3.55069,3.25293A22.246,22.246,0,0,0,48.25731,75.06425Z"/><path class="cls-2" d="M207.46022,95.44274c-6.23166-3.60673-8.41031-9.00831-6.76742-15.81661,1.6402-6.79737,6.60287-14.30214,24.11995-11.36144,7.20047,1.20879,10.967.42654,16.22393-1.68234,4.0305-1.61688,4.14089-1.49748,4.16049,2.85068.00538,1.19289-.08132,2.39269.01759,3.57734.22063,2.6423.05722,4.81184-3.57285,4.33659-1.52684-.19989-1.9521.55283-1.69537,2.1882,1.81477,11.56037-7.02633,16.71645-15.14431,17.69593-2.58919.31239-5.233.17166-7.85173.24041-.78036.02049-1.8321-.44649-2.09438.71842-.25485,1.13184.50061,1.8154,1.55036,1.984,2.93868.4719,5.88954.86833,8.83616,1.29051,2.004.28715,4.04116.42739,6.00683.87953,4.33442.99694,8.21051,2.75876,9.62721,7.48219,1.4555,4.85273.23929,9.18026-3.00653,12.96459a16.36691,16.36691,0,0,1-7.08,4.68071,34.74375,34.74375,0,0,1-21.78287.57406,13.89742,13.89742,0,0,1-5.58553-3.08433c-4.48386-4.0752-4.38617-7.6865.307-11.31609,1.03462-.80015,2.086-1.57858,3.34965-2.53317-3.14744-1.86388-5.9583-4.0613-6.18188-7.84025C200.64258,98.97875,205.49,98.647,207.46022,95.44274Zm15.4805,24.64936c2.00222-.2825,3.88807-.93995,3.92059-3.35085.03161-2.34415-1.881-2.7627-3.70822-3.04991-1.88035-.29552-4.23144-.66626-5.65-.82535-1.00737-.113-3.11189-.26117-3.67638,1.71033-.56382,1.96919-.11557,3.82191,1.77852,4.588A27.5535,27.5535,0,0,0,222.94072,120.0921Zm2.26041-37.00782c.1013-3.37847-1.189-4.67716-4.701-4.73162-3.67092-.05694-5.21037,1.17225-5.29307,4.22622-.08912,3.29126,1.40384,4.95376,4.57137,5.09052C223.31132,87.82191,225.10453,86.30565,225.20113,83.08428Z"/><path class="cls-2" d="M167.85409,75.01672c2.87717-1.95133,5.02163-3.66666,7.39342-4.96759,8.68912-4.766,17.759.58187,17.60774,10.40886-.147,9.5481-.272,19.09517.29871,28.628.13212,2.20736-.60661,2.5989-2.55163,2.54353-4.17371-.11884-8.35755-.15081-12.52836.01084-2.12665.08243-2.58051-.7009-2.48764-2.654.34-7.15015.58118-14.306.767-21.462.07518-2.89528-.742-5.29556-4.29885-5.31293-2.75112-.01342-4.43314.84545-4.25629,4.17189.39256,7.384.3604,14.79074.76176,22.17406.14341,2.63833-.70924,3.20922-3.15122,3.0896-4.048-.19832-8.11467-.12623-12.16967-.0212-1.74525.04521-2.27533-.52428-2.13836-2.25542.98065-12.39438.38075-24.79952.08873-37.19908-.0442-1.87706.59526-2.534,2.38278-2.62172,3.57355-.17545,7.15622-.35638,10.70481-.78556,2.61833-.31668,4.15246.10463,3.59783,3.19876A21.07739,21.07739,0,0,0,167.85409,75.01672Z"/><path class="cls-2" d="M141.88051,96.52372c.01105,1.72479-.56085,3.8493,2.47348,3.52129.59624-.06442.99134.47506,1.15657,1.14244.54987,2.22091-1.815,8.53313-3.2489,9.6406-3.882,2.99817-10.16463,2.23654-12.53957-1.71154-1.93424-3.21545-2.97033-2.65706-5.21456-.46315-5.40564,5.28435-10.45781,4.89888-16.41876.76088-4.86308-3.37588-6.52337-11.09154-3.94787-16.5083a10.03,10.03,0,0,1,7.79813-5.63261c3.63461-.642,7.34335-.96,11.00474-1.42721,2.07635-.265,3.59909.22334,3.31921-2.61947-.23525-2.38979-1.57686-3.27543-3.795-3.35871-3.56891-.134-6.79295,1.08531-9.967,2.47945-4.4125,1.938-4.40236,1.9611-5.2709-2.52242-1.62507-8.38876-1.62052-8.37157,6.8495-10.61923a36.78914,36.78914,0,0,1,17.33863-.81461c7.958,1.70939,11.31057,6.1251,11.07962,14.19116C142.43639,84.72744,141.86448,94.01992,141.88051,96.52372Zm-15.63777.25255c.01806-.69361.00091-3.61439-2.09127-3.74654-4.15384-.26236-5.36094,1.22457-5.348,3.966.011,2.33081,1.17113,3.50227,3.48377,3.47511C124.68617,100.44264,126.1511,100.29436,126.24274,96.77627Z"/><path class="cls-2" d="M310.45526,79.80349a267.33912,267.33912,0,0,0,.21817,29.25979c.11842,1.73758-.09458,2.63535-2.17307,2.571-4.41124-.13667-8.8312-.10837-13.2444-.00828-1.7023.03861-2.31212-.4533-2.18079-2.211,1.44344-19.31735.28929-38.64238.07459-57.96422-.01814-1.63115.40211-2.36512,2.1199-2.46052,4.525-.25133,9.0489-.57056,13.56036-.99827,2.43779-.23111,1.991,1.36122,1.9914,2.74393C310.82448,60.399,310.85121,70.14852,310.45526,79.80349Z"/><path class="cls-2" d="M284.48318,96.52372c.01105,1.72479-.56086,3.8493,2.47347,3.52129.59624-.06442.99134.47506,1.15658,1.14244.54986,2.22091-1.74036,8.63714-3.24891,9.6406-4.38483,2.91671-10.16462,2.23654-12.53956-1.71154-1.93425-3.21545-2.97033-2.65706-5.21457-.46315-5.40563,5.28435-10.45781,4.89888-16.41876.76088-4.86308-3.37588-6.52337-11.09154-3.94786-16.5083a10.02994,10.02994,0,0,1,7.79812-5.63261c3.63462-.642,7.34336-.96,11.00475-1.42721,2.07635-.265,3.59909.22334,3.31921-2.61947-.23526-2.38979-1.57687-3.27543-3.795-3.35871-3.56892-.134-6.793,1.08531-9.967,2.47945-4.41249,1.938-4.40235,1.9611-5.2709-2.52242-1.62507-8.38876-1.62051-8.37157,6.84951-10.61923a36.78914,36.78914,0,0,1,17.33863-.81461c7.958,1.70939,11.31057,6.1251,11.07961,14.19116C285.039,84.72744,284.46715,94.01992,284.48318,96.52372Zm-15.63778.25255c.01807-.69361.00092-3.61439-2.09126-3.74654-4.15384-.26236-5.36094,1.22457-5.348,3.966.01105,2.33081,1.17112,3.50227,3.48376,3.47511C267.28883,100.44264,268.75376,100.29436,268.8454,96.77627Z"/><path class="cls-3" d="M185.86634,155.04905v-12.9387h4.264v12.9387Zm2.12545-14.95853a2.23286,2.23286,0,0,1-1.66232-.71129,2.31373,2.31373,0,0,1-.70241-1.6927,2.23536,2.23536,0,0,1,.6926-1.66278,2.27149,2.27149,0,0,1,1.67213-.68792,2.29638,2.29638,0,0,1,1.6983.67483,2.24558,2.24558,0,0,1,.67951,1.67587,2.31181,2.31181,0,0,1-.69446,1.70485A2.26278,2.26278,0,0,1,187.99179,140.09052Z"/><path class="cls-3" d="M195.0025,155.04905V144.9798h-2.01889v-2.86945h2.01889v-2.98909a4.35905,4.35905,0,0,1,1.19919-3.34427,5.23145,5.23145,0,0,1,3.64991-1.1188,6.511,6.511,0,0,1,.82578.06449c.27059.03552.55754.08412.8613.14394v3.08349c-.10468-.03178-.20562-.058-.3019-.07851a2.57275,2.57275,0,0,0-.54865-.06543,1.37442,1.37442,0,0,0-1.159.49164,2.33383,2.33383,0,0,0-.35517,1.43473v2.37781h2.36472v2.86945H199.174v10.06925Z"/><path class="cls-3" d="M205.869,155.56686a2.29286,2.29286,0,0,1-1.71559-.71129,2.37516,2.37516,0,0,1-.70241-1.746,2.34167,2.34167,0,0,1,.69493-1.731,2.30743,2.30743,0,0,1,1.72307-.70007,2.36162,2.36162,0,0,1,1.75719.701,2.331,2.331,0,0,1,.70007,1.73008,2.42446,2.42446,0,0,1-2.45726,2.45726Z"/><path class="cls-3" d="M218.6881,155.56686a9.65594,9.65594,0,0,1-3.026-.42621,5.66764,5.66764,0,0,1-2.16237-1.274,4.37049,4.37049,0,0,1-1.15947-1.83383,11.63321,11.63321,0,0,1-.34723-3.30688v-6.61563h4.0378v6.92127a4.32428,4.32428,0,0,0,.6052,2.58063,2.8047,2.8047,0,0,0,4.00368.01309,4.34963,4.34963,0,0,0,.59912-2.59372v-6.92127h4.14435V148.726a11.27141,11.27141,0,0,1-.35331,3.29192,4.6379,4.6379,0,0,1-1.16881,1.85159,5.32013,5.32013,0,0,1-2.12592,1.27116A9.7764,9.7764,0,0,1,218.6881,155.56686Z"/><path class="cls-3" d="M234.24669,155.57153a5.07831,5.07831,0,0,1-4.11257-1.87495,7.85617,7.85617,0,0,1-1.55343-5.10239,7.49131,7.49131,0,0,1,1.62634-5.0594,5.5,5.5,0,0,1,4.34577-1.85065,4.8107,4.8107,0,0,1,2.48156.61688,5.12457,5.12457,0,0,1,1.80158,1.89739l.44537.75242V142.115h3.88545v12.93029h-3.85694v-2.7199l-.43789.65334a6.13551,6.13551,0,0,1-2.01563,1.97309A5.30531,5.30531,0,0,1,234.24669,155.57153Zm.92112-9.96456a2.77687,2.77687,0,0,0-3.01713,3.08349,2.74441,2.74441,0,0,0,2.85216,2.95637,2.89233,2.89233,0,0,0,3.2064-3.07227,2.83814,2.83814,0,0,0-2.93441-2.96666Z"/></svg>