<svg width="70" height="70" viewBox="0 0 70 70" fill="none" xmlns="http://www.w3.org/2000/svg">
<path d="M21.5 70C21.4 70 21.3 70 21.2 69.9L0.3 58C0.1 57.9 0 57.7 0 57.5V36.6V36.5C0 36.5 0 36.5 0 36.4C0 36.3 0 36.2 0.1 36.2C0.1 36.2 0.1 36.2 0.1 36.1C0.1 36.1 0.2 36 0.3 36C0.3 36 0.3 36 0.4 36L22.7 30L35.6 14.5C36.9 12.9 38.9 12 41 12C42.1 12 43.1 12.2 44 12.7L49.1 15.2L50.9 10.8C51 10.6 51.1 10.5 51.2 10.5L53 9.6V9.1C53 8.5 53.3 7.9 53.7 7.6L62.1 0.9C62.8 0.3 63.7 0 64.6 0H66C68.2 0 70 1.8 70 4C70 5.8 68.8 7.4 67.1 7.8L55.6 11.1C55.4 11.1 55.2 11.2 55 11.2C54.6 11.2 54.3 11.1 54 10.9L53.6 10.6L52 11.4L50.3 15.7L62 21.6C63.3 22.3 64.1 23.6 64.1 25C64.1 26 63.7 27 62.9 27.7L62 28.5L69.7 32.9L69.8 33C69.9 33.1 69.9 33.1 69.9 33.1L70 33.2V33.3C70 33.4 70 33.4 70 33.5V54.3C70 54.6 69.8 54.8 69.6 54.9L21.7 70C21.6 70 21.6 70 21.5 70ZM22.1 48.9V68.6L68.8 54V34.3L22.1 48.9ZM1.2 57.1L21 68.4V48.8L1.2 37.5V57.1ZM2.1 36.7L21.6 47.8L68 33.4L60.3 29L53 30.8L53.5 31.8C53.6 32 53.6 32.2 53.5 32.4C53.4 32.6 53.2 32.7 53 32.7C52.9 32.7 52.8 32.7 52.7 32.6L50.7 31.4L42.5 33.5L44.4 34.6C44.7 34.8 44.8 35.1 44.6 35.4C44.5 35.6 44.3 35.7 44.1 35.7C44 35.7 43.9 35.7 43.8 35.6L40.9 33.9L32.6 36L35.4 37.7C35.5 37.8 35.6 37.9 35.7 38.1C35.7 38.3 35.7 38.4 35.6 38.5C35.5 38.7 35.3 38.8 35.1 38.8C35 38.8 34.9 38.8 34.8 38.7L31.1 36.5L22.8 38.6L26.4 40.8C26.5 40.9 26.6 41 26.7 41.2C26.7 41.4 26.7 41.5 26.6 41.6C26.5 41.8 26.3 41.9 26.1 41.9C26 41.9 25.9 41.9 25.8 41.8L21.2 39L15.8 40.4H15.7C15.5 40.4 15.3 40.3 15.2 40.1C15.1 39.9 15.1 39.6 15.2 39.4L21.5 31.8L2.1 36.7ZM41 13.1C39.3 13.1 37.6 13.9 36.6 15.2L17.1 38.5L60 27.8H60.1L60.8 27.6C62 27.3 62.8 26.3 62.8 25.1C62.8 24.1 62.2 23.2 61.3 22.8L49.7 17L49 18.8C49 18.9 48.9 19 48.8 19.1L33.8 28.1C33.7 28.2 33.6 28.2 33.5 28.2C33.3 28.2 33.1 28.1 33 27.9C32.8 27.6 32.9 27.3 33.2 27.1L48 18.1L48.7 16.3L43.5 13.7C42.8 13.4 41.9 13.1 41 13.1ZM55.3 10L66.8 6.7C68 6.4 68.8 5.2 68.8 4C68.8 2.4 67.5 1.2 66 1.2H64.6C64 1.2 63.3 1.4 62.8 1.8L54.4 8.6L54.9 9.3L55 9.4L55.3 10Z" fill="#EBB25B"/>
</svg>
