<svg width="45" height="29" viewBox="0 0 45 29" fill="none" xmlns="http://www.w3.org/2000/svg">
<path d="M24.6384 27.52L23.7204 27.1236L23.1174 28.52H24.6384V27.52ZM36.0384 1.12V0.119995H35.381L35.1204 0.723558L36.0384 1.12ZM42.9984 1.12L43.9773 1.32466L44.2292 0.119995H42.9984V1.12ZM37.4784 27.52V28.52H38.291L38.4573 27.7247L37.4784 27.52ZM2.07844 27.52L1.16038 27.1236L0.557369 28.52H2.07844V27.52ZM13.4784 1.12V0.119995H12.821L12.5604 0.723558L13.4784 1.12ZM20.4384 1.12L21.4173 1.32466L21.6692 0.119995H20.4384V1.12ZM14.9184 27.52V28.52H15.731L15.8973 27.7247L14.9184 27.52ZM25.5565 27.9164L36.9565 1.51643L35.1204 0.723558L23.7204 27.1236L25.5565 27.9164ZM36.0384 2.12H42.9984V0.119995H36.0384V2.12ZM42.0196 0.915329L36.4996 27.3153L38.4573 27.7247L43.9773 1.32466L42.0196 0.915329ZM37.4784 26.52H24.6384V28.52H37.4784V26.52ZM2.9965 27.9164L14.3965 1.51643L12.5604 0.723558L1.16038 27.1236L2.9965 27.9164ZM13.4784 2.12H20.4384V0.119995H13.4784V2.12ZM19.4596 0.915329L13.9396 27.3153L15.8973 27.7247L21.4173 1.32466L19.4596 0.915329ZM14.9184 26.52H2.07844V28.52H14.9184V26.52Z" fill="#EBB25B"/>
</svg>
