<svg width="52" height="70" viewBox="0 0 52 70" fill="none" xmlns="http://www.w3.org/2000/svg">
<path d="M32.4001 70C32.0001 70 31.7001 69.8 31.5001 69.4L27.5001 59.9C27.4001 59.7 27.4001 59.6 27.5001 59.4C27.6001 59.2 27.7001 59.1 27.8001 59.1C27.9001 59.1 28.0001 59.1 28.0001 59.1C28.3001 59.1 28.5001 59.3 28.6001 59.5L32.3001 68.4L35.3001 63C35.6001 62.4 36.2001 62.1 36.8001 62.1C37.0001 62.1 37.1001 62.1 37.3001 62.2L43.2001 63.9L35.5001 45.5H35.2001C34.5001 45.6 33.8001 45.9 33.2001 46.4L29.2001 49.7C29.0001 49.9 28.7001 50.1 28.5001 50.2L28.4001 50.3L20.4001 69.5C20.3001 69.8 20.0001 70 19.6001 70C19.6001 70 19.6001 70 19.5001 70C19.1001 70 18.8001 69.8 18.7001 69.5L15.4001 63.5C15.3001 63.3 15.2001 63.3 15.0001 63.3H14.9001L8.3001 65.2C8.2001 65.2 8.1001 65.2 8.0001 65.2C7.7001 65.2 7.5001 65.1 7.3001 64.9C7.1001 64.6 7.0001 64.2 7.1001 63.9L15.0001 45.3L11.3001 44.9C8.8001 44.7 6.8001 42.7 6.6001 40.2L6.0001 35C5.9001 34.2 5.6001 33.5 5.1001 32.8L1.8001 28.8C0.200098 26.9 0.200098 24 1.8001 22.1L5.1001 18.1C5.6001 17.5 5.9001 16.7 6.0001 15.9L6.5001 10.7C6.7001 8.2 8.7001 6.2 11.2001 6L16.4001 5.5C17.2001 5.3 18.0001 5 18.6001 4.5L22.6001 1.2C23.6001 0.4 24.8001 0 26.0001 0C27.2001 0 28.4001 0.4 29.4001 1.2L33.4001 4.5C34.0001 5 34.8001 5.3 35.6001 5.4L40.8001 5.9C43.3001 6.1 45.3001 8.1 45.5001 10.6L46.0001 15.8C46.1001 16.6 46.4001 17.3 46.9001 18L50.2001 22C51.8001 23.9 51.8001 26.8 50.2001 28.7L46.9001 32.7C46.4001 33.3 46.1001 34.1 46.0001 34.9L45.5001 40.1C45.3001 42.6 43.3001 44.6 40.8001 44.8L37.0001 45.3L44.8001 63.9C44.9001 64.2 44.9001 64.6 44.6001 64.9C44.4001 65.1 44.2001 65.2 43.9001 65.2C43.8001 65.2 43.7001 65.2 43.6001 65.2L37.0001 63.3H36.9001C36.7001 63.3 36.6001 63.4 36.5001 63.5L33.2001 69.5C33.1001 69.8 32.8001 70 32.4001 70ZM15.1001 62C15.7001 62 16.3001 62.3 16.6001 62.9L19.6001 68.3L26.9001 50.8H26.2001C26.1001 50.8 26.0001 50.8 26.0001 50.8C24.8001 50.8 23.6001 50.4 22.6001 49.6L18.6001 46.3C18.0001 45.8 17.4001 45.5 16.6001 45.4H16.3001L8.6001 63.8L14.5001 62.1C14.7001 62 14.9001 62 15.1001 62ZM26.0001 1.3C25.1001 1.3 24.2001 1.6 23.5001 2.2L19.5001 5.5C18.7001 6.2 17.7001 6.6 16.7001 6.7L11.5001 7.2C9.6001 7.4 8.1001 8.9 7.9001 10.8L7.3001 16C7.2001 17.1 6.8001 18 6.1001 18.8L2.8001 22.8C1.6001 24.3 1.6001 26.4 2.8001 27.9L6.1001 31.9C6.8001 32.7 7.2001 33.7 7.3001 34.7L7.8001 39.9C8.0001 41.8 9.5001 43.3 11.4001 43.5L16.0001 43.9L16.6001 44C17.6001 44.1 18.6001 44.5 19.4001 45.2L23.4001 48.5C24.1001 49.1 25.0001 49.4 25.9001 49.4C26.8001 49.4 27.7001 49.1 28.4001 48.5L32.4001 45.2C33.2001 44.5 34.2001 44.1 35.2001 44L35.8001 43.9L40.4001 43.5C42.3001 43.3 43.8001 41.8 44.0001 39.9L44.5001 34.7C44.6001 33.7 45.0001 32.7 45.7001 31.9L49.0001 27.9C50.2001 26.4 50.2001 24.3 49.0001 22.8L45.7001 18.8C45.2001 18 44.8001 17 44.7001 16L44.2001 10.8C44.0001 8.9 42.5001 7.4 40.6001 7.2L35.4001 6.7C34.4001 6.6 33.4001 6.2 32.6001 5.5L28.6001 2.2C27.8001 1.6 26.9001 1.3 26.0001 1.3Z" fill="#EBB25B"/>
<path d="M26 41.4C17.2 41.4 10 34.2 10 25.4C10 19.1 13.7 13.4 19.4 10.8C19.5 10.8 19.6 10.7 19.7 10.7C19.9 10.7 20.2 10.8 20.3 11.1C20.4 11.3 20.4 11.4 20.3 11.6C20.2 11.8 20.1 11.9 20 12C14.7 14.4 11.3 19.6 11.3 25.4C11.3 33.5 17.9 40.1 26 40.1C34.1 40.1 40.7 33.5 40.7 25.4C40.7 17.3 34.1 10.7 26 10.7C25.4 10.7 24.7 10.7 24.1 10.8H24C23.7 10.8 23.4 10.6 23.4 10.2C23.4 10 23.4 9.90002 23.5 9.70002C23.6 9.60002 23.8 9.50002 23.9 9.50002C24.6 9.40002 25.3 9.40002 25.9 9.40002C34.7 9.40002 41.9 16.6 41.9 25.4C42 34.2 34.8 41.4 26 41.4Z" fill="#EBB25B"/>
<path d="M23.3 33.9C22.6 33.9 21.9 33.6 21.3 33.1L16.7 28.5C15.6 27.4 15.6 25.6 16.7 24.5C17.2 24 17.9 23.7 18.7 23.7C19.5 23.7 20.2 24 20.7 24.5L23.3 27.1L31.3 19.1C31.8 18.6 32.5 18.3 33.3 18.3C34 18.3 34.8 18.6 35.3 19.1C36.4 20.2 36.4 22 35.3 23.1L25.3 33.1C24.7 33.6 24 33.9 23.3 33.9ZM18.7 24.9C18.3 24.9 17.9 25.1 17.6 25.3C17 26 17 27 17.6 27.6L22.2 32.2C22.5 32.5 22.9 32.6 23.3 32.6C23.7 32.6 24.1 32.4 24.4 32.2L34.4 22.2C34.7 21.9 34.8 21.5 34.8 21.1C34.8 20.7 34.6 20.3 34.4 20C34.1 19.7 33.7 19.6 33.3 19.6C32.9 19.6 32.5 19.8 32.2 20L23.7 28.5C23.6 28.6 23.4 28.7 23.3 28.7C23.1 28.7 23 28.6 22.9 28.5L19.8 25.4C19.5 25.1 19.1 24.9 18.7 24.9Z" fill="#EBB25B"/>
</svg>
