<svg width="61" height="60" viewBox="0 0 61 60" fill="none" xmlns="http://www.w3.org/2000/svg">
<path d="M7.63247 59.9881C5.09625 59.9881 3.02441 57.9282 3.02441 55.38V33.9353C3.02441 33.6376 3.26255 33.3995 3.56023 33.3995C3.85791 33.3995 4.09605 33.6376 4.09605 33.9353V55.3919C4.09605 57.3328 5.6797 58.9165 7.62056 58.9165H19.1467V41.2939C19.1467 38.7577 21.2066 36.6859 23.7547 36.6859H36.1977C38.7339 36.6859 40.8057 38.7458 40.8057 41.2939V54.3679C40.8057 54.6656 40.5676 54.9038 40.2699 54.9038C39.9722 54.9038 39.7341 54.6656 39.7341 54.3679V41.2939C39.7341 39.353 38.1504 37.7694 36.2096 37.7694H23.7547C21.8139 37.7694 20.2302 39.353 20.2302 41.2939V58.9165H29.4344V42.437C29.4344 42.1393 29.6726 41.9012 29.9702 41.9012C30.2679 41.9012 30.5061 42.1393 30.5061 42.437V58.9165H52.3199C54.2608 58.9165 55.8444 57.3328 55.8444 55.3919V33.9353C55.8444 33.6376 56.0826 33.3995 56.3802 33.3995C56.6779 33.3995 56.9161 33.6376 56.9161 33.9353V55.3919C56.9161 57.9282 54.8561 60 52.308 60H7.63247V59.9881ZM52.0699 29.9821C49.1764 29.9821 46.5092 28.3985 45.128 25.8504L44.7113 25.0883L44.2945 25.8504C42.8895 28.4342 40.2937 29.9821 37.3527 29.9821C34.4116 29.9821 31.8158 28.4342 30.4108 25.8504L29.9941 25.0883L29.5773 25.8504C28.1723 28.4342 25.5765 29.9821 22.6355 29.9821C19.6944 29.9821 17.0986 28.4342 15.6817 25.8504L15.2649 25.0764L14.8482 25.8504C13.4551 28.3985 10.7998 29.994 7.90633 29.994C3.56023 29.994 0.0119071 26.4457 0 22.0877C0 20.5874 0 19.4324 0 18.5513V18.5037C0 16.5985 3.37117e-08 15.7293 0.0238143 15.6221C0.0357214 15.5983 0.0357214 15.5864 0.0476285 15.5626L6.65608 0.321492C6.73943 0.119071 6.92995 0 7.15618 0H52.8676C53.082 0 53.2725 0.130978 53.3677 0.321492C55.0347 4.16749 56.285 7.06092 57.2376 9.22802C59.2499 13.8599 59.9643 15.5031 60.0238 15.7769C60.0238 15.8008 60.0119 15.8246 60.0119 15.8484C59.9881 15.9913 59.9167 16.1103 59.8095 16.2056C59.7976 16.2175 59.7738 16.2294 59.7619 16.2413C59.2737 16.3128 56.5589 16.3247 48.9621 16.3247C46.1639 16.3247 42.6632 16.3247 38.2576 16.3247H38.21C30.8514 16.3247 20.766 16.3128 7.15618 16.3128C6.85851 16.3128 6.62036 16.0746 6.62036 15.7769C6.62036 15.4793 6.85851 15.2411 7.15618 15.2411H58.6545L52.4866 1.07164H7.47768L1.05973 15.8841V22.0758C1.05973 25.8385 4.13177 28.8986 7.88252 28.8986C11.6452 28.8986 14.7053 25.8146 14.7053 22.0282C14.7053 21.7305 14.9434 21.4924 15.2411 21.4924C15.5388 21.4924 15.7769 21.7305 15.7769 22.0282C15.7769 25.8146 18.8371 28.8986 22.5997 28.8986C26.3624 28.8986 29.4225 25.8385 29.4225 22.0758C29.4225 21.7781 29.6607 21.54 29.9583 21.54C30.256 21.54 30.4942 21.7781 30.4942 22.0758C30.4942 25.8385 33.5543 28.8986 37.3169 28.8986C41.0796 28.8986 44.1397 25.8385 44.1397 22.0758C44.1397 21.7781 44.3779 21.54 44.6755 21.54C44.9732 21.54 45.2114 21.7781 45.2114 22.0758C45.2114 25.8385 48.2715 28.8986 52.0341 28.8986C55.7968 28.8986 58.8569 25.8385 58.8569 22.0758C58.8569 21.7781 59.0951 21.54 59.3927 21.54C59.6904 21.54 59.9286 21.7781 59.9286 22.0758C59.9762 26.4338 56.4279 29.9821 52.0699 29.9821Z" fill="#EBB25B"/>
</svg>
